<svg width="36" height="36" viewBox="0 0 36 36" fill="none" xmlns="http://www.w3.org/2000/svg">
<g id="shopping_cart_24px">
<path id="icon/action/shopping_cart_24px" fill-rule="evenodd" clip-rule="evenodd" d="M27.4444 17.955C26.9344 18.885 25.9444 19.5 24.8194 19.5H13.6444L11.9944 22.5H29.9944V25.5H11.9944C9.71442 25.5 8.27442 23.055 9.36942 21.045L11.3944 17.385L5.99442 6H2.99442V3H7.89942L9.30942 6H31.5094C32.6494 6 33.3694 7.23 32.8144 8.22L27.4444 17.955ZM28.9594 9H10.7344L14.2894 16.5H24.8194L28.9594 9ZM11.9944 27C10.3444 27 9.00942 28.35 9.00942 30C9.00942 31.65 10.3444 33 11.9944 33C13.6444 33 14.9944 31.65 14.9944 30C14.9944 28.35 13.6444 27 11.9944 27ZM24.0094 30C24.0094 28.35 25.3444 27 26.9944 27C28.6444 27 29.9944 28.35 29.9944 30C29.9944 31.65 28.6444 33 26.9944 33C25.3444 33 24.0094 31.65 24.0094 30Z" fill="#454545"/>
</g>
</svg>
