<svg width="36" height="36" viewBox="0 0 36 36" fill="none" xmlns="http://www.w3.org/2000/svg">
<g id="search_24px">
<path id="icon/action/search_24px" fill-rule="evenodd" clip-rule="evenodd" d="M22.4475 21.3825H23.6325L31.1175 28.8825L28.8825 31.1175L21.3825 23.6325V22.4475L20.9775 22.0275C19.2675 23.4975 17.0475 24.3825 14.6325 24.3825C9.24751 24.3825 4.88251 20.0175 4.88251 14.6325C4.88251 9.24751 9.24751 4.88251 14.6325 4.88251C20.0175 4.88251 24.3825 9.24751 24.3825 14.6325C24.3825 17.0475 23.4975 19.2675 22.0275 20.9775L22.4475 21.3825ZM7.88251 14.6325C7.88251 18.3675 10.8975 21.3825 14.6325 21.3825C18.3675 21.3825 21.3825 18.3675 21.3825 14.6325C21.3825 10.8975 18.3675 7.88251 14.6325 7.88251C10.8975 7.88251 7.88251 10.8975 7.88251 14.6325Z" fill="#454545"/>
</g>
</svg>
